<?xml version="1.0" encoding="UTF-8" standalone="no"?>
<!DOCTYPE svg PUBLIC "-//W3C//DTD SVG 1.1//EN" "http://www.w3.org/Graphics/SVG/1.1/DTD/svg11.dtd">
<svg version="1.1" xmlns="http://www.w3.org/2000/svg" xmlns:xlink="http://www.w3.org/1999/xlink" preserveAspectRatio="xMidYMid meet" viewBox="0 0 510 510" width="510" height="510"><defs><path d="M173.64 386.09L173.64 386.09L419.07 386.09L173.64 386.09Z" id="blFK7oHMc"></path><path d="M317.86 373.68L64.76 373.68L64.76 286.58L317.86 286.58L317.86 373.68Z" id="dHe52CPF8"></path><path d="M317 374.44L130.64 186.8L192.22 124.8L378.58 312.43L317 374.44Z" id="b18fUut3kX"></path><path d="M445.3 211.4L192.2 211.4L192.2 124.09L445.3 124.09L445.3 211.4Z" id="aVqvoqxK4"></path><path d="M173.06 266.19L64.82 374.44L3.09 312.7L111.33 204.45L173.06 266.19Z" id="aSozebTF"></path><path d="M506.91 185.65L398.67 293.9L336.94 232.16L445.18 123.91L506.91 185.65Z" id="cCV5rzDz5"></path></defs><g><g><g><use xlink:href="#blFK7oHMc" opacity="1" fill="#000000" fill-opacity="1"></use></g><g><use xlink:href="#dHe52CPF8" opacity="1" fill="#000000" fill-opacity="1"></use></g><g><use xlink:href="#b18fUut3kX" opacity="1" fill="#000000" fill-opacity="1"></use></g><g><use xlink:href="#aVqvoqxK4" opacity="1" fill="#000000" fill-opacity="1"></use></g><g><use xlink:href="#aSozebTF" opacity="1" fill="#000000" fill-opacity="1"></use></g><g><use xlink:href="#cCV5rzDz5" opacity="1" fill="#000000" fill-opacity="1"></use></g></g></g></svg>