<?xml version="1.0" encoding="UTF-8" standalone="no"?>
<!DOCTYPE svg PUBLIC "-//W3C//DTD SVG 1.1//EN" "http://www.w3.org/Graphics/SVG/1.1/DTD/svg11.dtd">
<svg version="1.1" xmlns="http://www.w3.org/2000/svg" xmlns:xlink="http://www.w3.org/1999/xlink" preserveAspectRatio="xMidYMid meet" viewBox="0 0 640 640" width="800" height="800"><defs><path d="M258.74 431L258.74 431L504.16 431L258.74 431Z" id="a1JPvfroYR"></path><path d="M402.95 418.59L149.85 418.59L149.85 331.49L402.95 331.49L402.95 418.59Z" id="hieqPYnZ8"></path><path d="M402.09 419.35L215.74 231.72L277.32 169.71L463.67 357.35L402.09 419.35Z" id="e5FviOTO5"></path><path d="M530.4 256.31L277.3 256.31L277.3 169L530.4 169L530.4 256.31Z" id="asA80pu9k"></path><path d="M258.16 311.1L149.92 419.35L88.19 357.61L196.43 249.36L258.16 311.1Z" id="dcV5LhhrS"></path><path d="M592 230.56L483.77 338.81L422.04 277.08L530.28 168.82L592 230.56Z" id="a49LIAUTc7"></path></defs><g><g><g><use xlink:href="#a1JPvfroYR" opacity="1" fill="#000000" fill-opacity="1"></use></g><g><use xlink:href="#hieqPYnZ8" opacity="1" fill="#000000" fill-opacity="1"></use></g><g><use xlink:href="#e5FviOTO5" opacity="1" fill="#000000" fill-opacity="1"></use></g><g><use xlink:href="#asA80pu9k" opacity="1" fill="#000000" fill-opacity="1"></use></g><g><use xlink:href="#dcV5LhhrS" opacity="1" fill="#000000" fill-opacity="1"></use></g><g><use xlink:href="#a49LIAUTc7" opacity="1" fill="#000000" fill-opacity="1"></use></g></g></g></svg>